<svg xmlns="http://www.w3.org/2000/svg" viewBox="0 0 762 762" fill="none" width="96" height="96" role="img"><rect width="762" height="762" fill="#cbd5e1"/><circle cx="176" cy="265" r="78" fill="#2F3542"/><circle cx="176" cy="265" r="43" fill="#4A5160"/><circle cx="586" cy="265" r="78" fill="#2F3542"/><circle cx="586" cy="265" r="43" fill="#4A5160"/><ellipse cx="381" cy="430" rx="250" ry="238" fill="#FFFFFF"/><ellipse cx="276" cy="410" rx="72" ry="86" fill="#2F3542" transform="rotate(-12 276 410)"/><ellipse cx="486" cy="410" rx="72" ry="86" fill="#2F3542" transform="rotate(12 486 410)"/><circle cx="276" cy="410" r="24" fill="#FFFFFF"/><circle cx="284" cy="401" r="7" fill="#FFFFFF" opacity=".9"/><circle cx="486" cy="410" r="24" fill="#FFFFFF"/><circle cx="494" cy="401" r="7" fill="#FFFFFF" opacity=".9"/><ellipse cx="381" cy="520" rx="110" ry="76" fill="#F3F4F6"/><path d="M351 487 h60 l-30 32 Z" fill="#2F3542"/><path d="M337 540 Q381 562 425 540" fill="none" stroke="#2F3542" stroke-width="13" stroke-linecap="round"/></svg>
