<svg xmlns="http://www.w3.org/2000/svg" viewBox="0 0 762 762" fill="none" width="96" height="96" role="img"><rect width="762" height="762" fill="#fecaca"/><path d="M114 395 L206 235 L298 395 Z" fill="#E8703A"/><path d="M160 366 L206 280 L252 366 Z" fill="#5A3A2E"/><path d="M464 395 L556 235 L648 395 Z" fill="#E8703A"/><path d="M510 366 L556 280 L602 366 Z" fill="#5A3A2E"/><ellipse cx="381" cy="430" rx="250" ry="238" fill="#E8703A"/><path d="M146 470 Q381 700 616 470 Q381 560 146 470 Z" fill="#FFF3EA"/><ellipse cx="381" cy="515" rx="105" ry="80" fill="#FFD9C0"/><circle cx="286" cy="400" r="26" fill="#2F3542"/><circle cx="295" cy="390" r="8" fill="#FFFFFF" opacity=".9"/><circle cx="476" cy="400" r="26" fill="#2F3542"/><circle cx="485" cy="390" r="8" fill="#FFFFFF" opacity=".9"/><path d="M351 484 h60 l-30 32 Z" fill="#2F3542"/><path d="M339 540 Q381 560 423 540" fill="none" stroke="#2F3542" stroke-width="13" stroke-linecap="round"/></svg>
